<svg class="cover" viewBox="0 0 1497 1393" fill="none" xmlns="http://www.w3.org/2000/svg">
    <g class="back">
        <g class="green" fill="#5FC26E">
            <path d="M1043 207H708V537H1043V207Z" />
            <path d="M1272 738H1057V1068H1272V738Z" />
            <path d="M696 726H435V973H696V726Z" />
            <path d="M1043 1258H708V1393H1043V1258Z" />
        </g>
        <g class="red" fill="#FF4A50">
            <path d="M1497 738H1282V1068H1497V738Z" />
            <path d="M697 0H354V351H697V0Z" />
            <path d="M1043 911H708V1247H1043V911Z" />
            <path d="M1219 0H1055V361H1219V0Z" />
            <path d="M344 985H0V1393H344V985Z" />
        </g>
        <g class="orange" fill="#FF7A00">
            <path d="M423 726H0V973H423V726Z" />
            <path d="M698 361H354V503H698V361Z" />
            <path d="M1497 373H1055V726H1497V373Z" />
            <path d="M1218 1079H1055V1393H1218V1079Z" />
        </g>
        <g class="blue" fill="#40A1FF">
            <path d="M1497 0H1230V361H1497V0Z" />
            <path d="M1043 547H708V896H1043V547Z" />
            <path d="M1497 1079H1229V1393H1497V1079Z" />
            <path d="M344 365H0V714H344V365Z" />
        </g>
        <g class="yellow" fill="#FFE24A">
            <path d="M698 514H354V714H698V514Z" />
            <path d="M344 0H0V353H344V0Z" />
            <path d="M698 985H354V1393H698V985Z" />
            <path d="M1043 0H708V196H1043V0Z" />
        </g>
    </g>
    <g class="front">
        <g class="red" fill="#FF4A50">
            <path d="M1119.86 528.525H1014.93V664.315H1119.86V528.525Z" />
            <path d="M210.989 751.756C255.588 751.756 291.743 716.983 291.743 674.088C291.743 631.193 255.588 596.42 210.989 596.42C166.39 596.42 130.235 631.193 130.235 674.088C130.235 716.983 166.39 751.756 210.989 751.756Z" />
        </g>
        <g class="orange" fill="#FF7A00">
            <path d="M708.372 657.114C744.165 657.114 773.181 626.025 773.181 587.676C773.181 549.326 744.165 518.237 708.372 518.237C672.579 518.237 643.563 549.326 643.563 587.676C643.563 626.025 672.579 657.114 708.372 657.114Z" />
        </g>
        <g class="yellow" fill="#FFE24A">
            <path d="M748.492 890.632V784.674L757.751 770.272L836.962 890.632H748.492Z" />
            <path d="M1151.75 908.12C1198.34 908.12 1236.1 870.353 1236.1 823.766C1236.1 777.178 1198.34 739.411 1151.75 739.411C1105.16 739.411 1067.39 777.178 1067.39 823.766C1067.39 870.353 1105.16 908.12 1151.75 908.12Z" />
        </g>
        <g class="blue" fill="#40A1FF">
            <path d="M1265.42 664.315C1299.79 664.315 1327.66 631.614 1327.66 591.276C1327.66 550.938 1299.79 518.237 1265.42 518.237C1231.05 518.237 1203.18 550.938 1203.18 591.276C1203.18 631.614 1231.05 664.315 1265.42 664.315Z" />
            <path d="M783.983 1164.27C805.288 1164.27 822.56 1146.31 822.56 1124.15C822.56 1101.99 805.288 1084.03 783.983 1084.03C762.677 1084.03 745.406 1101.99 745.406 1124.15C745.406 1146.31 762.677 1164.27 783.983 1164.27Z" />
            <path d="M591.099 268.26H410.045V162.302L443.993 119.096L485.141 102.637L548.922 124.24L585.955 180.819L591.099 268.26Z" />
            <path d="M427.556 1076.83H509.83V1164.21C552.147 1162.46 585.955 1124.93 585.955 1078.89C585.955 1031.73 550.491 993.504 506.744 993.504C463.635 993.504 428.569 1030.62 427.556 1076.83Z" />
        </g>
        <g class="green" fill="#5FC26E">
            <path d="M255.224 1320.63C290.732 1320.63 319.518 1291.62 319.518 1255.83C319.518 1220.03 290.732 1191.02 255.224 1191.02C219.715 1191.02 190.929 1220.03 190.929 1255.83C190.929 1291.62 219.715 1320.63 255.224 1320.63Z" />
            <path d="M451.194 1145.75C428.15 1126.82 423.761 1091.92 424.447 1076.83H509.83V1175.59C499.886 1173.53 474.237 1164.68 451.194 1145.75Z" />
        </g>
    </g>
    <g class="letters" fill="black">
        <path d="M121.192 1277.49C113.039 1277.49 107.603 1271.36 107.603 1262.84C107.603 1254.66 113.039 1248.36 121.192 1248.36C130.024 1248.36 135.12 1254.32 135.12 1262.84C135.12 1271.7 130.024 1277.49 121.192 1277.49ZM256.06 1339.15C216.143 1339.15 188.626 1311.39 183.19 1273.57L151.596 1275.78V1251.08L182.341 1253.13C185.229 1209.18 215.973 1181.76 256.06 1181.76C279.33 1181.76 299.374 1190.95 312.623 1207.31L398.571 1299.63L394.665 1183.81H418.275L411.31 1337.1H405.026L329.779 1255.86V1259.78C329.779 1303.04 300.733 1339.15 256.06 1339.15ZM308.546 1258.92C308.376 1224.35 287.313 1201.86 256.23 1201.86C226.674 1201.68 205.951 1222.46 204.083 1253.81L278.991 1250.92V1275.62L204.762 1272.89C209.689 1303.21 230.411 1321.26 256.06 1321.26C285.445 1321.44 308.546 1297.59 308.546 1258.92Z" />
        <path d="M507.97 1181.76C451.133 1181.76 413.54 1139.7 410.854 1085.31H360.73L364.757 1178.67H331.863L335.443 1074.51L331.863 980.491H364.757L360.73 1065.49H411.078C416.672 1011.54 456.504 978.29 507.747 978.29C537.285 978.29 563.019 989.3 580.473 1009.12L607.102 974.987H608.668L674.457 1061.96L743.603 974.987H747.183L796.413 1070.34C821.922 1075.18 840.048 1094.34 840.048 1122.97C840.048 1156 817.447 1181.1 783.21 1181.1C748.973 1181.1 726.372 1156.87 726.372 1122.74C726.372 1095.88 742.707 1076.94 766.427 1071.21L742.483 1020.35L674.681 1104.69H673.338L607.773 1018.81L596.808 1034.66C601.955 1046.99 605.087 1063.07 605.087 1078.93C605.087 1135.29 566.599 1181.76 507.97 1181.76ZM495.887 1085.31H439.273C441.735 1124.73 463.44 1150.71 492.755 1157.32L495.887 1085.31ZM493.202 1005.82C463.888 1011.32 443.749 1033.78 439.72 1065.49H495.887L493.202 1005.82ZM522.74 1157.53C554.068 1150.71 576.892 1121.64 576.892 1078.26C576.669 1039.29 555.411 1011.98 522.516 1005.82L520.725 1074.51L522.74 1157.53ZM814.985 1123.63C814.762 1102.27 802.454 1092.14 783.21 1092.14C764.413 1092.14 751.434 1101.83 751.434 1123.4C751.434 1146.97 765.309 1161.06 783.21 1161.06C800.888 1161.06 814.985 1146.52 814.985 1123.63Z" />
        <path d="M636.362 923.338H636.841L727.546 938.425L731.375 854.435L652.637 861.866L649.764 836.871L731.375 839.349L728.025 768.419L639.953 779.677H639.234L644.978 751.756H762.488L897.708 953.736V954.412H858.459L823.996 895.417H760.095L762.488 954.412H642.345L636.362 923.338ZM813.465 877.403L761.053 787.333L758.419 847.905L759.617 877.403H813.465ZM982.431 848.355C982.431 837.322 978.601 827.864 969.986 814.354L925.71 751.756H964.481L993.201 801.519C1003.25 817.507 1008.76 834.169 1008.76 848.58C1008.76 880.78 977.405 903.298 945.096 903.298C918.291 903.298 896.033 888.437 878.801 860.965L803.653 751.756H845.535L901.298 848.806C915.898 871.548 929.778 880.33 946.292 880.33C964.481 880.33 982.431 867.946 982.431 848.355Z" />
        <path d="M585.955 813.21V933.015L553.62 938.982V938.504L563.929 811.301C563.929 789.582 551.276 782.9 537.217 782.9C522.689 782.9 513.551 791.253 503.475 801.754L485.667 820.131L491.525 928.003L465.281 930.867L467.624 837.791C450.753 852.588 435.523 857.839 421.464 857.839C413.497 857.839 405.999 856.168 399.438 852.349L403.89 935.402V936.118L375.069 930.39V800.084C375.069 783.855 378.349 766.911 380.693 758.796L417.246 753.307C393.111 750.92 375.069 730.157 375.069 691.017V572.883L404.358 567.155V567.632L397.329 691.495V695.313C397.329 712.974 405.765 723.475 421.464 723.475C431.071 723.475 440.913 719.418 453.331 706.292L468.796 689.585L465.984 571.928L492.228 574.792L486.839 670.493C501.132 655.935 515.191 645.672 535.812 645.672C545.887 645.672 556.9 648.536 566.038 655.696L553.62 565.007V564.53L585.955 570.257V702.95C585.955 715.838 581.972 736.839 576.114 747.818L541.2 753.307C562.289 755.693 585.018 772.161 585.955 813.21ZM537.686 675.982C525.033 675.982 515.426 683.141 506.287 693.642L477.934 726.339C458.486 748.295 438.569 753.784 421.698 753.784H419.355C407.873 770.968 397.095 787.673 397.095 805.095V805.573L397.329 808.675C398.501 820.131 405.062 827.529 418.183 827.529C429.197 827.529 437.632 822.994 450.753 810.346L482.152 780.036C498.086 764.524 511.91 752.591 534.171 752.591C535.577 752.591 536.982 752.591 538.154 752.83C554.088 732.543 563.695 717.27 563.695 701.041C563.929 685.051 553.151 675.982 537.686 675.982Z" />
        <path d="M726.863 662.247C723.815 663.088 720.285 663.592 716.915 663.928L731.517 712.664H702.153V663.928C659.469 660.566 636.362 625.779 636.362 585.781C636.362 538.557 665.727 508.979 709.052 508.979C715.47 508.979 721.569 509.651 727.184 510.995H838.226L842.076 532.507H841.755L757.512 526.793C769.868 538.556 777.57 555.195 779.496 576.034L835.177 574.354L833.251 593.176L779.977 589.31C779.014 611.158 771.152 632.837 755.266 647.122L843.842 638.215H844.163L839.99 662.247H726.863ZM759.598 587.125L759.277 577.715C756.549 547.968 738.738 528.978 709.213 528.978C676.157 528.809 656.902 551.498 656.902 584.941C656.902 623.258 679.688 646.786 709.213 646.786C736.812 646.786 758.796 624.098 759.598 587.125ZM723.173 594.184L720.445 556.539H739.54L738.256 594.184C738.256 614.182 728.789 628.467 708.892 628.467C688.994 628.467 679.688 614.351 679.688 594.184L678.083 556.539H697.017L694.45 594.184C694.45 608.133 700.548 614.015 708.731 614.015C717.236 614.015 723.173 608.133 723.173 594.184Z" />
        <path d="M999.232 632.95H945.101L915.678 683.86H885.311V683.472L997.535 510.728V508.979H1058.83C1108.44 508.979 1143.52 537.349 1143.52 593.116C1143.52 644.221 1110.32 683.86 1053.17 683.86H997.535L999.232 632.95ZM998.666 539.68L953.965 617.211H999.798L1000.74 591.756L998.666 539.68ZM1024.13 640.918L1025.07 664.235H1053.17C1094.29 664.235 1119.37 638.586 1119.37 591.951C1119.19 553.088 1095.42 529.965 1056.76 529.965H1024.88L1023.94 550.756H1085.05L1087.5 571.547H1086.56L1023.19 565.33L1022.05 588.453L1083.54 587.481L1082.41 604.969L1022.24 601.666L1023.37 627.704L1087.31 619.349H1088.26L1085.99 641.111H1024.13V640.918Z" />
        <path d="M885.311 1219.79H885.879L994 1235.66L997.689 1136.17L904.609 1142.41L901.203 1110.94L997.973 1114.06L994.568 1028.74L890.987 1039.22H890.42L897.23 1003.79H1035.43L1028.91 1237.37L1138.16 1216.11H1138.72L1132.2 1258.91H892.406L885.311 1219.79ZM1090.2 1091.1L1085.38 1003.79H1127.09L1120.86 1167.92L1198.89 1149.5H1199.46L1192.93 1190.03H1085.38L1090.2 1091.1ZM1184.42 1065.31L1179.87 1003.79H1264.73L1271.25 1034.69H1270.69L1213.37 1023.92L1210.53 1055.1L1258.77 1052.26L1255.94 1078.34L1209.68 1070.41L1213.08 1106.13L1271.54 1093.94H1272.11L1265.86 1124.83H1179.31L1184.42 1065.31Z" />
        <path d="M1245.26 841.685C1237.84 888.097 1202.53 923.551 1151.94 923.551C1094.39 923.551 1057.11 879.502 1057.11 823.206C1057.11 762.827 1098.09 725.009 1151.94 725.009C1203.18 725.009 1243.29 759.819 1246.35 815.685L1285.59 813.107V844.263L1245.26 841.685ZM1217.57 841.04L1122.08 844.693V813.536L1218.88 817.189C1216.49 776.793 1190.1 751.009 1151.94 751.009C1112.05 750.794 1084.8 779.801 1084.8 822.561C1084.8 871.551 1114.01 901.634 1151.94 901.634C1184.65 901.419 1211.47 878.857 1217.57 841.04ZM1324.62 810.958C1335.09 810.958 1342.06 818.693 1342.06 829.437C1342.06 839.751 1335.09 847.701 1324.62 847.701C1313.28 847.701 1306.74 840.181 1306.74 829.437C1306.74 818.478 1313.28 810.958 1324.62 810.958Z" />
        <path d="M462.7 468.331H393.925L357.309 528.525H319.518V527.835L460.587 321.753L461.995 355.985L404.722 449.951H463.638L464.812 419.854L460.587 321.753H517.389C557.528 321.753 580.765 342.89 580.765 372.757C580.765 398.948 567.151 419.395 536.637 427.666L604.472 528.065V528.525H563.865L513.4 431.112V415.719C537.341 412.962 551.659 400.786 551.659 379.42C551.659 361.499 538.75 346.566 511.052 346.566H494.622L491.571 419.854L496.03 528.525H460.587L462.7 468.331Z" />
        <path d="M750.839 264.867L756.118 456.785H721.559L726.84 266.04L644.283 279.882H643.563L649.563 245.628H934.189L940.19 279.648H939.71L750.839 264.867ZM910.671 383.819L905.392 314.606L938.989 317.421L936.11 385.227C936.11 429.335 912.831 459.601 866.753 459.601C820.435 459.601 797.157 429.804 797.157 385.227L794.036 308.506L828.115 311.321L822.835 383.819C822.835 419.951 841.314 436.609 866.753 436.609C892.912 436.609 910.671 419.481 910.671 383.819ZM955.789 456.785V456.316L1025.15 353.787C993.707 345.341 980.028 324.46 980.028 297.714C980.028 267.448 1003.55 245.628 1044.82 245.628H1191.69L1197.45 274.956H1196.98L1107.95 262.755L1104.82 336.66L1186.9 334.079L1184.02 360.357L1104.82 352.145L1108.18 440.127L1199.61 424.173H1200.1L1194.1 456.785H1073.86L1078.18 345.81L1075.06 270.966H1051.06C1022.75 270.966 1009.55 286.217 1009.55 304.518C1009.55 326.571 1024.19 338.772 1048.66 341.588V357.307L997.307 456.785H955.789Z" />
        <path d="M490.936 281.432L388.442 285.748V203.245C388.442 136.48 423.487 89.2635 492.376 89.2635C555.505 89.2635 604.472 134.196 604.472 210.861V285.748L490.936 281.432ZM551.424 249.701L580.228 248.431V210.607C580.228 155.266 548.544 121.503 490.936 121.503C442.93 121.757 414.366 153.743 414.366 205.783V248.938L440.05 250.208V167.959L465.732 164.659V165.674L457.811 250.97L486.376 252.493L485.175 169.736L506.778 171.259L502.698 252.239L534.862 250.716L524.541 164.659V163.39L551.424 166.436V249.701Z" />
        <path d="M656.578 182.698H657.491L718.303 193.895L719.399 156.15L665.892 161.749L664.066 142.425L719.764 144.231L720.861 109.557L660.596 118.406H659.865L663.517 96.7342H721.408L722.504 60.6149L645.986 70.1865H645.621L650.186 44H896.176L900.742 70.1865H900.377L824.224 60.6149L825.32 96.9148H877.732L881.385 118.586H880.471L825.685 110.64L826.78 144.231L877.001 142.786L875.175 161.93L827.146 156.873L828.241 192.812L883.576 182.698H884.488L881.019 206.537H801.214L805.779 60.7955H740.949L745.514 206.537H660.047L656.578 182.698Z" />
        <path d="M529.16 1271.65L526.29 1204.07H549.409L546.22 1333.85L617.172 1322.46H617.49L613.664 1346.51H526.29L529.16 1271.65ZM598.038 1250.92L595.168 1204.07H618.287L615.418 1250.92L618.287 1303.3H595.168L598.038 1250.92ZM715.387 1348.41C674.889 1348.41 644.754 1322.14 644.754 1274.82C644.754 1229.4 673.932 1202.33 723.04 1202.33C746.956 1202.33 765.93 1206.45 786.975 1213.88L858.565 1346.2V1346.51H830.982L805.949 1290.65H767.365L764.654 1333.85C756.522 1340.18 738.984 1348.41 715.387 1348.41ZM746.637 1326.25L743.448 1278.3V1277.98H800.21L781.555 1236.04C764.495 1225.6 743.129 1221 719.372 1221C696.095 1221 664.844 1233.99 664.844 1273.23C664.844 1308.53 685.092 1332.27 717.937 1332.27C726.707 1332.27 739.622 1330.37 746.637 1326.25Z" />
        <path d="M341.121 564.983L308.507 687.73C301.55 741.957 261.76 776.445 206.968 776.445C145.87 776.445 107.603 734.924 107.603 673.664C107.603 614.445 145.87 573.832 206.968 573.832C256.541 573.832 293.722 602.193 305.246 647.798V569.975L340.904 564.53V564.983H341.121ZM206.315 602.193C162.178 602.42 133.477 628.285 133.477 673.436C133.259 720.176 162.612 747.403 205.88 747.403C255.454 747.403 285.895 715.185 285.895 673.436C286.112 633.504 255.672 602.193 206.315 602.193ZM218.056 653.697L169.353 657.554V630.554L218.056 632.369C243.93 632.369 262.412 645.756 262.412 673.89C262.412 702.024 244.148 715.185 218.056 715.185L169.353 717.453V690.681L218.056 694.31C236.103 694.31 243.713 685.688 243.713 674.117C243.713 662.092 236.103 653.697 218.056 653.697Z" />
        <path d="M1046.51 206.537C1000.61 206.537 968.637 176.838 968.637 126.124C968.637 76.2776 1003.21 46.0574 1056.92 46.0574C1079.04 46.0574 1101.9 50.9205 1118.62 61.6885L1122.9 89.6509H1122.53C1104.31 76.1039 1080.71 66.7252 1054.5 66.7252C1025.32 66.7252 991.869 81.3143 991.869 126.297C991.869 163.638 1013.43 188.821 1049.11 188.821C1057.66 188.821 1069.56 186.563 1076.44 182.743L1070.3 130.466V129.944L1096.32 113.271L1166.58 175.97L1163.98 48.1416H1189.81L1183.49 204.453H1167.14L1096.32 141.06V193.685C1087.59 199.937 1067.89 206.537 1046.51 206.537Z" />
        <path d="M208.166 93.4675L98.3086 111.878H97.3159L105.588 66.6317H344.165L352.437 111.878H351.776L241.587 93.4675L243.572 158.372H337.878L344.495 195.818H342.841L243.903 182.087L245.888 240.127L336.223 237.632L332.914 270.708L246.55 261.971L248.536 324.067L348.466 306.593H350.12L344.165 347.471H199.563L208.166 93.4675Z" />
        <path d="M1340.14 324.241L1279.86 460.629H1272.87L1209.36 306.82V306.322H1234.8L1279.01 427.279L1321.69 306.322H1349.69C1376.5 306.322 1393.91 322.582 1393.91 345.479C1393.91 367.215 1382.47 385.301 1353.11 391.274L1410.98 455.155V455.651H1381.45L1332.45 393.432V380.655C1357.89 379.826 1372.57 368.045 1372.57 349.959C1372.57 336.022 1364.21 324.241 1343.72 324.241H1340.14Z" />
        <path d="M1218.61 238.434H1218.98L1294.02 250.917L1296.58 182.726L1231.06 187.57L1228.86 166.89L1296.77 169.126L1294.38 110.251L1222.28 119.753H1221.91L1226.3 96.4644H1337.95C1369.42 96.4644 1387.35 113.605 1387.35 137.826C1387.35 159.065 1376.74 175.647 1352.94 182.354L1405.84 263.772V264.145H1374.18L1335.01 185.149V172.665C1353.68 170.43 1364.85 160.555 1364.85 143.229C1364.85 128.696 1354.78 116.586 1333.18 116.586H1320.38L1317.81 176.019L1321.29 264.145H1223.19L1218.61 238.434Z" />
        <path d="M149.262 828.338C149.262 837.205 142.874 843.234 134.002 843.234C125.484 843.234 118.919 837.205 118.919 828.338C118.919 819.65 125.129 814.507 134.002 814.507C143.229 814.507 149.262 819.65 149.262 828.338ZM124.952 904.057L120.161 855.292H148.552L144.648 904.057L147.133 975.164H121.403L124.952 904.057ZM181.024 891.289L178.008 815.571H204.092L200.189 961.687L268.505 948.21H268.86L264.601 974.987H178.008L181.024 891.289ZM238.517 870.187L235.501 815.571H261.585L257.681 918.243L306.478 906.716H306.833L302.752 932.074H235.501L238.517 870.187ZM297.429 854.051L294.412 815.571H347.468L351.55 834.899H351.195L315.351 828.161L313.576 847.667L343.742 845.893L341.968 862.208L313.044 857.243L315.174 879.586L351.727 871.961H352.082L348.178 891.289H294.412L297.429 854.051Z" />
        <path d="M191.226 547.041L148.995 445.158C142.836 446.39 137.206 447.094 128.231 447.094C106.06 447.094 86 436.36 86 412.253C86 400.815 88.2876 382.515 89.3433 373.716H101.837L103.948 396.768C105.356 412.253 113.802 414.716 128.055 414.716C130.871 414.716 133.51 414.54 136.15 413.836L125.592 388.85V386.738H164.832L204.424 510.793L244.368 386.738H279.737V388.85L268.827 413.484C271.643 413.836 274.457 414.364 277.449 414.364C291.526 414.364 299.973 411.901 301.556 396.24L303.668 373.189H316.161C317.217 381.987 319.505 400.463 319.505 411.901C319.505 436.008 299.445 446.742 277.273 446.742C267.595 446.742 262.141 446.038 255.102 444.63L209.703 547.041H191.226Z" />
        <path d="M1227.13 1250.38L1221.7 1167.47H1263.61L1258.37 1250.38L1263.42 1342.24H1221.7L1227.13 1250.38ZM1325.7 1342.04L1270.4 1251.74C1267.3 1247.47 1265.75 1242.42 1265.75 1236.79C1265.75 1222.03 1277.58 1210.19 1292.14 1210.19C1297.18 1210.19 1301.84 1211.55 1305.91 1213.88L1335.99 1162.61L1371.88 1198.54L1315.61 1225.14C1317.56 1228.64 1318.33 1232.53 1318.33 1236.79C1318.33 1247.08 1312.51 1255.83 1304.16 1260.29L1372.27 1339.72V1342.04H1325.7ZM1348.98 1166.11L1360.24 1131.35H1370.92L1353.25 1170.19L1348.98 1166.11ZM1361.6 1178.34L1357.91 1174.65L1390.32 1139.9L1398.27 1148.05L1361.6 1178.34ZM1370.33 1187.47L1366.26 1183.2L1405.84 1167.86V1178.15L1370.33 1187.47Z" />
        <path d="M1380.36 776.445C1374.98 717.301 1294.42 760.122 1277.69 678.703C1272.69 679.663 1267.5 680.047 1261.92 680.047C1209.63 680.047 1175.41 636.074 1175.41 590.755C1175.41 536.412 1212.71 502.807 1261.92 502.807C1311.15 502.807 1348.44 536.412 1348.44 590.755C1348.44 621.287 1332.1 652.204 1304.8 668.525C1334.41 686.576 1409.01 665.261 1405.74 746.105L1382.47 776.252H1380.36V776.445ZM1314.41 591.523C1314.22 556.574 1293.65 533.723 1262.12 533.915C1230.59 533.531 1209.82 556.958 1209.82 591.331C1209.82 625.704 1231.94 652.204 1262.12 652.587C1292.11 652.204 1314.41 625.512 1314.41 591.523Z" />
        <path d="M142.225 1155.66H108.632V1153.9L156.393 1086L115.35 1026.12V1024.36H147.776L170.561 1067.01L189.987 1024.36H231.467L319.396 1155.8H291.936L213.502 1037.95L203.717 1050.51L274.117 1155.8H246.658L188.964 1069.49L179.179 1082.34L228.401 1154.2V1155.95H194.807L165.449 1102.35L142.225 1155.66ZM192.616 1115.2C192.616 1111.69 189.841 1108.93 186.336 1108.93C182.83 1108.93 180.054 1111.69 180.054 1115.2C180.054 1118.56 182.83 1121.33 186.336 1121.33C189.694 1121.33 192.616 1118.56 192.616 1115.2ZM201.087 1145.58C204.593 1145.58 207.368 1142.8 207.368 1139.45C207.368 1135.94 204.593 1133.16 201.087 1133.16C197.582 1133.16 194.807 1135.94 194.807 1139.45C194.807 1142.8 197.582 1145.58 201.087 1145.58ZM221.244 1087.74C221.244 1084.25 218.469 1081.47 214.963 1081.47C211.458 1081.47 208.682 1084.25 208.682 1087.74C208.682 1091.11 211.458 1093.88 214.963 1093.88C218.469 1093.88 221.244 1091.11 221.244 1087.74ZM241.4 1133.31C244.906 1133.31 247.68 1130.54 247.68 1127.17C247.68 1123.68 244.906 1120.9 241.4 1120.9C237.895 1120.9 235.119 1123.68 235.119 1127.17C235.119 1130.54 237.895 1133.31 241.4 1133.31ZM249.141 1061.46C249.141 1057.95 246.366 1055.18 242.86 1055.18C239.355 1055.18 236.58 1057.95 236.58 1061.46C236.58 1064.81 239.355 1067.59 242.86 1067.59C246.366 1067.59 249.141 1064.81 249.141 1061.46ZM286.825 1133.31C290.329 1133.31 293.105 1130.54 293.105 1127.17C293.105 1123.68 290.329 1120.9 286.825 1120.9C283.319 1120.9 280.543 1123.68 280.543 1127.17C280.543 1130.54 283.319 1133.31 286.825 1133.31Z" />
    </g>
</svg>