<svg class="logo" width="435" height="198" viewBox="0 0 435 198" fill="none" xmlns="http://www.w3.org/2000/svg">

    <rect width="435" height="198" fill="white" />
    <g id="back">
        <g id="green" fill="#5FC26E">
            <path d="M289 12H207V61H289V12Z" />
        </g>
        <g id="yellow" fill="#FFE24A">
            <path d="M96 186L180 186L180 139L96 139L96 186Z" />
        </g>
        <g id="pink" fill="#E478ED">
            <path d="M338 12H297V61H338V12Z" />
        </g>
        <g id="red" fill="#FF4A50">
            <path d="M189 185.84L244 185.84L244 139L189 139L189 185.84Z" />
        </g>
        <g id="blue" fill="#40A1FF">
            <path d="M20 186L87 186L87 139L20 139L20 186Z" />
        </g>
        <g id="orange" fill="#FF7A00">
            <path d="M413 12H347V61H413V12Z" />
        </g>
    </g>
    <g id="letters" fill="white">
        <path d="M338 12H337.217L338 12.7031V12Z" />
        <path d="M297 21.0625V12H299.293C302.176 18.1562 307.896 21.8867 315.709 21.8867C316.689 21.8867 317.805 21.7969 318.936 21.625C320.998 21.3086 323.113 20.7188 324.551 19.918L323.623 12H330.988V23.4609C328.16 25.4844 321.785 27.6211 314.867 27.6211C307.607 27.6211 301.424 25.3242 297 21.0625Z" fill="white" />
        <path d="M207 27.625H217.447L216.957 12H208.975L208.641 23.5312L207 23.2305V27.625Z" fill="white" />
        <path d="M235.473 27.625L235.963 12H243.879L244.221 23.1797L262.129 19.9062H262.424L261.301 27.625H235.473Z" fill="white" />
        <path d="M259.41 13.1836L248.186 12H259.523L259.41 13.1836Z" fill="white" />
        <path d="M207 47.6289L211.406 46.8906L211.016 61H219.572L219.174 46.5117L280.299 51.2969H280.453L278.512 40.2812H207V47.6289Z" fill="white" />
        <path d="M237.508 61H233.168L233.154 60.6406L237.508 61Z" fill="white" />
        <path d="M338 40.2812H314.316C306.393 40.2812 300.49 42.7656 297 46.8359V61H302.99C302.93 60.4688 302.9 59.918 302.9 59.3477C302.9 53.4219 307.172 48.4844 316.338 48.4844H324.104L324.625 61H334.105L334.746 45.8281L338 46.2741V40.2812Z" fill="white" />
        <path d="M86.5747 143.686L76.0195 183.428C75.9075 184.301 75.7692 185.159 75.6054 186H67.6952C68.3581 183.739 68.7014 181.323 68.7014 178.8C68.7717 165.871 58.9203 155.733 42.9468 155.733C30.8292 155.796 22.3068 161.832 20 172.585V155.185C25.5532 149.709 33.4684 146.551 43.1579 146.551C59.2017 146.551 71.2347 155.733 74.9641 170.499V145.302L86.5044 143.539V143.686H86.5747Z" fill="white" />
        <path d="M20 185.316V186H20.1526C20.099 185.774 20.0482 185.546 20 185.316Z" fill="white" />
        <path d="M61.1017 178.947C61.1017 181.752 60.5412 184.097 59.5188 186H30.9843V184.383L46.7465 185.558C52.587 185.558 55.0501 182.767 55.0501 179.021C55.0501 175.127 52.587 172.409 46.7465 172.409L30.9843 173.658V164.916L46.7465 165.504C55.1203 165.504 61.1017 169.838 61.1017 178.947Z" fill="white" />

        <path d="M158.488 186H165.811V145.395L155.346 143.539V143.695L159.365 173.055C156.408 170.738 152.844 169.812 149.582 169.812C142.908 169.812 138.359 173.133 133.732 177.848L135.477 146.863L126.984 145.934L127.895 184.027L126.068 186H139.459L140.027 185.344C142.027 183.043 144.098 181.238 146.494 180.312C147.641 179.867 148.863 179.625 150.189 179.625C154.604 179.625 157.838 181.906 158.488 186Z" fill="white" />
        <path d="M104.766 186H97.5898C97.5703 185.508 97.5605 185.004 97.5605 184.492V146.242L107.039 144.391V144.543L104.766 184.648V185.883C104.766 185.922 104.766 185.961 104.766 186Z" fill="white" />


        <path d="M189 139V146.633C189.119 145.77 189.283 144.938 189.49 144.133C189.625 143.609 189.779 143.102 189.951 142.605C190.404 141.301 190.986 140.094 191.688 139H189Z" fill="white" />
        <path d="M219.178 139C220.664 141.418 221.588 144.391 221.9 147.797L222.004 150.844C221.744 162.816 214.631 170.16 205.697 170.16C197.135 170.16 190.322 164.039 189 153.84V169.133C192.523 172.801 197.361 175.234 203.414 175.711V186H211.271L208.191 175.711C209.281 175.602 210.424 175.438 211.41 175.168H244V167.918L220.604 170.27C225.744 165.645 228.289 158.625 228.6 151.551L244 152.672V146.785L228.443 147.254C228.34 146.133 228.186 145.051 227.98 144.008C227.631 142.227 227.135 140.555 226.502 139H219.178Z" fill="white" />
        <path d="M210.217 153.129L209.334 140.941H215.514L215.098 153.129C215.098 159.605 212.033 164.23 205.594 164.23C199.154 164.23 196.143 159.66 196.143 153.129L195.623 140.941H201.752L200.92 153.129C200.92 157.645 202.895 159.551 205.543 159.551C208.295 159.551 210.217 157.645 210.217 153.129Z" fill="white" />

        <path d="M413 15.0312C411.543 15.8633 409.75 16.4062 407.67 16.6562V20.6992L413 31.4531V15.0312Z" fill="white" />
        <path d="M395.293 15.5117L395.15 12H402.352L402.104 17.7422L403.23 46.2734H371.482L370 37.9492H370.119L394.404 41.9922L395.232 19.9141L374.029 21.4805L373.316 14.7852L395.293 15.5117Z" fill="white" />
        <path d="M347 20.7631L353.906 26.9492H359.199L359.803 12H353.609L353.727 17.7266L347.312 12H347V20.7631Z" fill="white" />
    </g>
    <g id="text" fill="black">
        <g id="open">
            <path id="o" d="M48.1187 36.36C48.1107 41.7625 46.9797 46.1025 44.7556 49.2591C42.5355 52.4073 39.2553 54.0024 35.0022 53.9964C30.7966 53.9899 27.5413 52.3844 25.3337 49.2277C23.1201 46.067 22.0016 41.7251 22.0101 36.3186C22.0185 30.914 23.149 26.5741 25.3736 23.4214C27.5912 20.2712 30.851 18.6782 35.0561 18.6841C39.3092 18.6906 42.5854 20.2937 44.797 23.4503C47.0086 26.6135 48.1271 30.9575 48.1187 36.36V36.36ZM50.0499 18.3662C48.2788 16.1538 46.1026 14.415 43.5832 13.1968C41.0553 11.974 38.1907 11.3522 35.0686 11.3477C31.9465 11.3417 29.0924 11.9551 26.5854 13.1718C24.0805 14.3841 21.9083 16.1164 20.1352 18.3203C18.3661 20.5227 16.9772 23.1863 16.0044 26.2412C15.038 29.298 14.5451 32.6858 14.5391 36.3081C14.5326 39.9763 15.0171 43.376 15.9754 46.4124C16.9338 49.4463 18.3143 52.1059 20.0788 54.3123C21.8459 56.5227 24.0096 58.261 26.5126 59.4838C29.0175 60.7065 31.8717 61.3283 34.9918 61.3328C38.1118 61.3368 40.9765 60.7255 43.5104 59.5112C46.0403 58.2964 48.2184 56.5641 49.9915 54.3602C51.7626 52.1558 53.1515 49.5022 54.1243 46.4728C55.0907 43.4384 55.5856 40.0407 55.5896 36.3705C55.5961 32.7501 55.1136 29.3604 54.1553 26.2996C53.1949 23.2447 51.815 20.5766 50.0499 18.3662" />
            <path id="p" d="M73.0698 34.7991L73.0928 19.9765C73.0948 19.4919 73.4879 19.0987 73.9743 19.0987L86.0037 19.1176C88.5046 19.1216 90.5232 19.8433 91.9989 21.2592C93.4746 22.6735 94.221 24.7362 94.217 27.3878C94.213 29.989 93.5185 32.0497 92.1525 33.5095C90.7851 34.9653 88.7082 35.7035 85.9767 35.6995L73.9474 35.6785C73.461 35.6785 73.0698 35.2832 73.0698 34.7991V34.7991ZM67.1874 60.6324L71.6086 60.6389C72.3923 60.6408 73.0304 60.0045 73.0324 59.2205L73.0574 42.5992L85.634 42.6197C87.9723 42.6242 90.147 42.2998 92.0947 41.6589C94.0463 41.0186 95.757 40.0414 97.1814 38.7563C98.6072 37.4647 99.7232 35.8572 100.503 33.9776C101.287 32.0956 101.686 29.8807 101.69 27.3978C101.694 24.9234 101.301 22.711 100.521 20.8145C99.7422 18.9285 98.6486 17.3289 97.2727 16.0628C95.8967 14.7941 94.2294 13.8229 92.3212 13.1766C90.4169 12.5298 88.332 12.1989 86.1284 12.1949L67.2642 12.168C66.4785 12.166 65.8404 12.8023 65.8384 13.5859L65.7695 59.208C65.7675 59.994 66.4036 60.6304 67.1874 60.6324" />
            <path id="e" d="M112.309 60.691L141.675 60.7369C142.461 60.7389 143.099 60.1026 143.099 59.3166L143.105 54.9621C143.107 54.1761 142.471 53.5397 141.687 53.5377L119.601 53.5023C118.809 53.5023 118.167 52.8575 118.167 52.0655L118.187 39.8086C118.187 39.0166 118.832 38.3738 119.626 38.3738L130.655 38.3907C131.439 38.3927 132.077 37.7564 132.077 36.9723L132.086 32.6179C132.086 31.8338 131.45 31.1955 130.666 31.1935L119.636 31.1771C118.844 31.1771 118.2 30.5322 118.202 29.7397L118.216 20.8711C118.216 20.0766 118.861 19.4338 119.655 19.4362L140.704 19.4692C141.488 19.4692 142.126 18.8349 142.126 18.0488L142.134 13.6924C142.134 12.9083 141.498 12.27 140.714 12.27L112.383 12.2266C111.6 12.2246 110.962 12.8609 110.962 13.6444L110.889 59.2667C110.889 60.0527 111.525 60.691 112.309 60.691" />
            <path id="n" d="M188.884 12.3566L184.596 12.3506C183.813 12.3486 183.175 12.9849 183.175 13.7685L183.133 40.0369C183.131 41.1429 183.141 42.2598 183.164 43.3912C183.187 44.5201 183.195 45.5787 183.193 46.5683C183.193 46.8324 183.234 47.1318 183.179 47.3898C183.114 47.6748 182.736 47.7392 182.555 47.5251C182.52 47.4837 182.497 47.4357 182.476 47.3878C182.416 47.2466 182.332 47.1113 182.256 46.9761C181.992 46.5144 181.73 46.0488 181.472 45.5807C181.106 44.9109 180.726 44.2541 180.333 43.6033C179.948 42.969 162.098 14.2077 161.337 12.9824C161.08 12.5667 160.622 12.3132 160.132 12.3132L154.887 12.3047C154.101 12.3027 153.463 12.939 153.461 13.7231L153.393 59.3447C153.391 60.1308 154.027 60.7671 154.81 60.7691L159.096 60.7756C159.88 60.7776 160.518 60.1413 160.52 59.3572L160.562 32.9855C160.562 31.904 160.552 30.808 160.531 29.7015C160.508 28.5956 160.5 27.56 160.502 26.5908C160.502 26.3912 160.527 26.179 160.489 25.9814C160.477 25.921 160.45 25.8566 160.456 25.7923C160.468 25.6655 160.701 25.5033 160.824 25.5033C160.851 25.5033 160.903 25.5262 160.932 25.5322C161.08 25.5677 161.171 25.678 161.219 25.8112C161.273 25.9629 161.381 26.1022 161.462 26.2414C161.657 26.5723 161.855 26.9047 162.05 27.2376C162.763 28.4374 163.416 29.4979 164.015 30.4192L182.842 60.1537C183.102 60.5635 183.555 60.813 184.039 60.815L188.81 60.8215C189.593 60.8235 190.231 60.1872 190.231 59.4031L190.304 13.781C190.304 12.9949 189.668 12.3566 188.884 12.3566" />
        </g>
        <g id="publishing">
            <path id="p1" d="M25.8375 82.8625C25.8375 82.3096 26.2885 81.8604 26.8413 81.8624L38.7484 81.8794C41.2513 81.8833 43.2673 82.605 44.7456 84.0209C46.2193 85.4353 46.9656 87.498 46.9616 90.1471C46.9572 92.7548 46.2607 94.8134 44.8932 96.2713C43.5318 97.7271 41.4549 98.4632 38.7234 98.4587L26.8163 98.4422C26.2636 98.4402 25.8146 97.9911 25.8146 97.4356L25.8375 82.8625V82.8625ZM50.0149 78.8225C48.6409 77.5558 46.9741 76.5846 45.0634 75.9378C43.1596 75.2915 41.0747 74.9626 38.8691 74.9586L20.0044 74.9297C19.2187 74.9272 18.5826 75.5635 18.5806 76.3476L18.5098 121.97C18.5098 122.756 19.1439 123.392 19.9296 123.394L24.3533 123.4C25.1391 123.403 25.7751 122.766 25.7771 121.982L25.8001 106.638C25.8021 105.932 26.3738 105.363 27.0783 105.365L38.3762 105.381C40.7105 105.386 42.8852 105.064 44.8389 104.421C46.791 103.778 48.4997 102.801 49.9196 101.518C51.3414 100.235 52.4619 98.6274 53.2497 96.7394C54.031 94.8529 54.4281 92.6405 54.4326 90.1596C54.4366 87.6746 54.0434 85.4622 53.2662 83.5762C52.4844 81.6897 51.3913 80.0907 50.0149 78.8225" />
            <path id="u" d="M100.13 76.4651C100.13 75.681 99.4961 75.0427 98.7104 75.0407L94.2892 75.0342C93.5054 75.0342 92.8673 75.6685 92.8654 76.4546L92.8234 103.411C92.8175 107.849 91.8945 111.249 90.0795 113.509C88.2671 115.767 85.4194 116.909 81.6153 116.903C77.9919 116.896 75.217 115.701 73.3666 113.345C71.5147 110.991 70.5773 107.472 70.5853 102.893L70.6272 76.4191C70.6272 75.6351 69.9911 74.9968 69.2073 74.9948L64.7837 74.9883C63.9979 74.9883 63.3618 75.6226 63.3598 76.4087L63.3184 103.089C63.3079 109.749 64.846 114.994 67.8913 118.673C70.9764 122.409 75.4166 124.231 81.4636 124.239C87.5581 124.25 92.0816 122.498 95.2955 118.891C98.4654 115.333 100.078 110.084 100.089 103.284L100.13 76.4651V76.4651Z" />
            <path id="b" d="M138.863 114.72C137.562 116.184 135.277 116.925 132.082 116.918L120.672 116.902C119.859 116.9 119.202 116.24 119.202 115.427L119.223 102.343C119.223 101.53 119.884 100.873 120.697 100.873L132.315 100.892C135.055 100.896 137.183 101.619 138.641 103.044C140.097 104.464 140.833 106.442 140.829 108.918C140.825 111.303 140.164 113.256 138.863 114.72ZM119.238 92.7547L119.252 83.1953C119.254 82.3843 119.913 81.725 120.726 81.727L132.207 81.7435C134.625 81.748 136.356 82.3653 137.356 83.5796C138.356 84.7964 138.863 86.3225 138.861 88.1112C138.859 88.8868 138.73 89.6539 138.476 90.392C138.225 91.1222 137.832 91.7854 137.308 92.3554C136.782 92.9273 136.088 93.391 135.25 93.7338C134.402 94.0752 133.373 94.2474 132.188 94.2454L120.707 94.2269C119.895 94.2269 119.238 93.5657 119.238 92.7547ZM113.679 123.535L131.507 123.562C136.79 123.571 140.919 122.317 143.773 119.84C146.675 117.326 148.088 113.679 148.097 108.688C148.099 107.039 147.858 105.546 147.375 104.246C146.893 102.961 146.257 101.842 145.481 100.915C144.704 99.9933 143.825 99.2342 142.873 98.6603C141.952 98.1028 141.014 97.6786 140.085 97.3981C141.775 96.5307 143.216 95.3229 144.363 93.8067C145.527 92.2681 146.12 90.2258 146.124 87.7389C146.13 83.5861 144.908 80.5103 142.388 78.3393C139.904 76.1957 136.501 75.1058 132.273 75.0998L113.754 75.0703C112.97 75.0683 112.332 75.7046 112.332 76.4907L112.262 122.111C112.259 122.897 112.895 123.533 113.679 123.535" />
            <path id="l" d="M188.883 116.456L167.94 116.423C166.973 116.42 166.189 115.637 166.191 114.671L166.252 76.5754C166.252 75.7913 165.618 75.153 164.832 75.153L160.409 75.1445C159.623 75.1445 158.987 75.7789 158.985 76.5649L158.914 122.185C158.914 122.971 159.548 123.609 160.334 123.609L188.873 123.653C189.656 123.655 190.294 123.021 190.294 122.234L190.303 117.88C190.303 117.094 189.667 116.456 188.883 116.456" />
            <path id="i" d="M206.291 75.2096L201.87 75.2031C201.086 75.2011 200.448 75.8375 200.446 76.6215L200.375 122.244C200.373 123.03 201.009 123.666 201.795 123.668L206.216 123.674C207 123.676 207.638 123.04 207.638 122.256L207.711 76.634C207.711 75.8479 207.075 75.2096 206.291 75.2096" />
            <path id="s" d="M248.909 100.311C247.577 99.2084 245.937 98.2496 244.033 97.4636C242.12 96.68 239.956 95.9105 237.572 95.1743C235.501 94.5689 233.759 93.987 232.398 93.438C231.005 92.8786 229.947 92.3256 229.159 91.7412C228.386 91.1732 227.831 90.5514 227.515 89.8881C227.197 89.2268 227.039 88.4782 227.039 87.6592C227.041 86.0412 227.66 84.6727 228.932 83.4749C230.205 82.2732 232.221 81.6907 235.094 81.6972C237.472 81.6992 239.582 82.086 241.367 82.8451C242.781 83.446 244.13 84.3154 245.38 85.4278C245.945 85.9329 246.803 85.906 247.336 85.3675L250.487 82.1818C250.764 81.9009 250.911 81.5206 250.896 81.1253C250.882 80.732 250.701 80.3622 250.404 80.1062C248.544 78.4986 246.539 77.199 244.444 76.2448C241.916 75.0924 238.96 74.504 235.658 74.5C233.452 74.496 231.344 74.808 229.39 75.4253C227.434 76.0432 225.719 76.939 224.295 78.0849C222.869 79.2308 221.723 80.6636 220.89 82.344C220.061 84.0219 219.637 85.9249 219.635 87.9936C219.631 90.1501 219.942 91.9927 220.564 93.469C221.179 94.9413 222.123 96.2184 223.368 97.256C224.607 98.2936 226.191 99.2168 228.07 99.9989C229.93 100.776 232.19 101.55 234.776 102.295C236.795 102.896 238.514 103.477 239.879 104.029C241.253 104.582 242.39 105.174 243.257 105.794C244.118 106.408 244.743 107.09 245.105 107.817C245.469 108.552 245.654 109.386 245.652 110.29C245.643 114.944 242.282 117.298 235.66 117.287C233.375 117.283 231.093 116.757 228.875 115.726C227.072 114.886 225.447 113.794 224.046 112.478C223.495 111.96 222.628 111.966 222.083 112.494L218.838 115.645C218.568 115.907 218.414 116.266 218.408 116.645C218.404 117.023 218.547 117.385 218.811 117.658C220.682 119.579 222.89 121.16 225.374 122.36C228.29 123.763 231.56 124.479 235.096 124.485C238.169 124.489 240.869 124.133 243.126 123.424C245.384 122.713 247.263 121.7 248.706 120.417C250.156 119.134 251.254 117.57 251.969 115.778C252.686 113.99 253.052 111.985 253.054 109.82C253.059 107.655 252.699 105.788 251.986 104.27C251.277 102.752 250.242 101.421 248.909 100.311" />
            <path id="h" d="M299.236 75.3566L294.816 75.3501C294.03 75.3481 293.392 75.9844 293.39 76.7685L293.365 94.0386C293.363 94.5192 292.973 94.91 292.492 94.908L271.994 94.8765C271.514 94.8765 271.123 94.4857 271.125 94.0031L271.15 76.735C271.152 75.949 270.518 75.3127 269.732 75.3107L265.307 75.3047C264.521 75.3022 263.885 75.9385 263.883 76.7226L263.813 122.345C263.81 123.131 264.446 123.767 265.232 123.769L269.658 123.775C270.441 123.778 271.079 123.141 271.081 122.357L271.111 102.945C271.111 102.462 271.501 102.074 271.984 102.074L292.48 102.105C292.962 102.107 293.351 102.498 293.351 102.979L293.32 122.39C293.32 123.176 293.954 123.813 294.739 123.815L299.161 123.821C299.947 123.823 300.583 123.187 300.585 122.403L300.656 76.781C300.658 75.9949 300.022 75.3566 299.236 75.3566" />
            <path id="i1" d="M319.405 75.3854L314.983 75.3789C314.197 75.3769 313.559 76.0132 313.557 76.7973L313.488 122.419C313.486 123.205 314.122 123.841 314.906 123.843L319.33 123.85C320.114 123.852 320.752 123.216 320.754 122.431L320.825 76.8098C320.827 76.0237 320.189 75.3854 319.405 75.3854" />
            <path id="n1" d="M369.16 75.4665L364.872 75.46C364.089 75.458 363.45 76.0943 363.448 76.8804L363.409 103.146C363.407 104.253 363.415 105.369 363.437 106.501C363.462 107.63 363.469 108.69 363.469 109.678C363.469 109.89 363.475 110.106 363.467 110.319C363.458 110.506 363.367 110.841 363.118 110.805C362.937 110.778 362.82 110.602 362.739 110.456C362.629 110.258 362.517 110.061 362.407 109.865C362.186 109.474 361.964 109.085 361.748 108.693C361.384 108.023 361.001 107.364 360.609 106.713C360.222 106.078 342.372 77.3171 341.613 76.0943C341.355 75.6761 340.898 75.4226 340.408 75.4226L335.161 75.4141C334.377 75.4121 333.739 76.0484 333.737 76.8325L333.666 122.455C333.666 123.241 334.3 123.877 335.086 123.879L339.37 123.885C340.156 123.887 340.794 123.251 340.794 122.465L340.836 96.0948C340.838 95.0133 340.828 93.9154 340.807 92.8114C340.794 92.1811 340.784 91.5512 340.78 90.9209C340.778 90.5511 340.825 90.1518 340.763 89.7855C340.75 89.7086 340.73 89.6378 340.73 89.5589C340.73 89.503 340.74 89.4591 340.755 89.4092C340.765 89.3738 340.782 89.2989 340.798 89.266C340.857 89.1577 341.04 89.0848 341.149 89.0788C341.277 89.0703 341.466 89.1078 341.576 89.1741C341.611 89.1951 341.623 89.226 341.653 89.251C341.684 89.2759 341.723 89.2739 341.755 89.3054C341.79 89.3363 341.81 89.3967 341.825 89.4381C341.858 89.528 341.885 89.6028 341.935 89.6837C342.064 89.9063 342.195 90.1269 342.326 90.345C343.039 91.5448 343.692 92.6073 344.29 93.5306L363.116 123.263C363.375 123.673 363.829 123.922 364.313 123.924L369.085 123.931C369.869 123.933 370.507 123.297 370.507 122.513L370.58 76.8908C370.58 76.1048 369.944 75.4665 369.16 75.4665" />
            <path id="g" d="M418.248 99.3875L405.744 99.369C404.958 99.367 404.32 100.003 404.32 100.787L404.314 105.004C404.312 105.79 404.948 106.426 405.731 106.429H406.461C407.374 106.431 408.286 106.433 409.201 106.433C409.681 106.435 410.161 106.435 410.642 106.437H411.244C411.367 106.437 411.429 106.449 411.531 106.512C411.658 106.591 411.814 106.616 411.922 106.724C412.003 106.805 412.097 106.899 412.14 107.009C412.24 107.267 412.151 107.637 412.128 107.886C412.038 108.843 411.851 109.791 411.561 110.706C411.144 112.012 410.496 113.169 409.631 114.146C408.764 115.123 407.625 115.921 406.253 116.516C404.883 117.107 403.192 117.406 401.225 117.402C397.015 117.396 393.76 115.793 391.552 112.636C389.339 109.473 388.22 105.131 388.229 99.7263C388.237 94.3218 389.368 89.9843 391.594 86.8277C393.812 83.677 397.07 82.0839 401.279 82.0904C403.742 82.0944 405.746 82.5605 407.233 83.4754C408.43 84.2175 409.569 85.3239 410.613 86.7628C411.049 87.3642 411.876 87.5264 412.508 87.1371L416.574 84.6272C416.903 84.4256 417.131 84.0992 417.214 83.7249C417.3 83.3526 417.227 82.9598 417.017 82.6374C415.472 80.2773 413.533 78.4117 411.255 77.0891C408.59 75.546 405.237 74.7599 401.289 74.754C398.167 74.7475 395.313 75.3613 392.808 76.5756C390.301 77.7899 388.129 79.5222 386.356 81.7266C384.583 83.935 383.192 86.6006 382.228 89.6475C381.257 92.6958 380.764 96.0831 380.758 99.7139C380.751 103.391 381.238 106.793 382.196 109.82C383.151 112.846 384.53 115.504 386.3 117.721C388.067 119.931 390.233 121.671 392.735 122.89C395.236 124.113 398.088 124.735 401.212 124.739C403.871 124.743 406.366 124.304 408.621 123.433C410.87 122.566 412.841 121.266 414.481 119.563C416.113 117.866 417.4 115.782 418.298 113.37C419.198 110.962 419.655 108.157 419.661 105.027L419.668 100.812C419.67 100.028 419.031 99.3895 418.248 99.3875" />
        </g>
        <g id="fest">
            <path id="f" d="M290.298 137.731L261.969 137.688C261.184 137.688 260.545 138.322 260.545 139.108L260.475 184.73C260.473 185.516 261.109 186.152 261.892 186.152L266.316 186.16C267.102 186.16 267.74 185.524 267.74 184.74L267.769 166.386C267.771 165.434 268.542 164.667 269.492 164.667L280.237 164.686C281.023 164.686 281.659 164.049 281.661 163.265L281.667 158.909C281.669 158.125 281.033 157.486 280.25 157.484L269.503 157.467C268.553 157.465 267.783 156.694 267.785 155.744L267.8 146.617C267.8 145.664 268.574 144.897 269.523 144.897L290.288 144.931C291.074 144.931 291.71 144.296 291.712 143.51L291.718 139.156C291.718 138.37 291.083 137.731 290.298 137.731" />
            <path id="e1" d="M331.483 179.081L309.682 179.047C308.732 179.045 307.963 178.274 307.965 177.323L307.982 165.637C307.984 164.686 308.755 163.917 309.705 163.919L320.45 163.936C321.236 163.938 321.874 163.301 321.874 162.515L321.88 158.161C321.882 157.375 321.248 156.738 320.463 156.738L309.717 156.72C308.768 156.72 307.998 155.948 308.001 154.998L308.011 146.699C308.013 145.749 308.786 144.979 309.736 144.981L330.498 145.013C331.284 145.015 331.923 144.378 331.923 143.592L331.928 139.238C331.93 138.452 331.296 137.815 330.511 137.813L302.18 137.77C301.396 137.768 300.758 138.404 300.758 139.188L300.688 184.812C300.686 185.598 301.322 186.234 302.105 186.234L331.473 186.282C332.259 186.282 332.895 185.646 332.897 184.861L332.903 180.505C332.905 179.721 332.269 179.083 331.483 179.081" />
            <path id="s1" d="M370.502 162.893C369.167 161.789 367.525 160.83 365.625 160.048C363.741 159.271 361.575 158.503 359.166 157.754C357.094 157.151 355.352 156.567 353.99 156.02C352.597 155.461 351.54 154.906 350.751 154.325C349.978 153.756 349.425 153.134 349.107 152.473C348.791 151.809 348.631 151.061 348.631 150.241C348.633 148.623 349.253 147.255 350.527 146.055C351.797 144.855 353.813 144.275 356.686 144.279C359.066 144.284 361.178 144.668 362.958 145.425C364.374 146.028 365.725 146.897 366.974 148.012C367.537 148.515 368.398 148.486 368.93 147.947L372.079 144.764C372.356 144.483 372.503 144.101 372.489 143.707C372.472 143.315 372.296 142.946 371.998 142.689C370.14 141.083 368.134 139.784 366.038 138.827C363.51 137.675 360.555 137.087 357.249 137.082C355.042 137.078 352.932 137.39 350.984 138.008C349.026 138.627 347.313 139.522 345.89 140.667C344.461 141.815 343.316 143.248 342.485 144.926C341.655 146.604 341.231 148.505 341.227 150.576C341.225 152.733 341.537 154.575 342.156 156.052C342.771 157.524 343.715 158.796 344.96 159.838C346.205 160.878 347.789 161.803 349.666 162.583C351.527 163.361 353.787 164.135 356.368 164.877C358.376 165.474 360.093 166.056 361.474 166.611C362.845 167.164 363.98 167.757 364.85 168.379C365.712 168.99 366.336 169.672 366.697 170.4C367.063 171.136 367.246 171.966 367.246 172.874C367.238 177.526 363.877 179.88 357.254 179.87C354.969 179.866 352.684 179.339 350.467 178.306C348.664 177.47 347.041 176.376 345.64 175.06C345.085 174.542 344.22 174.548 343.675 175.077L340.433 178.227C340.16 178.489 340.007 178.851 340 179.225C339.996 179.603 340.142 179.97 340.404 180.24C342.277 182.164 344.484 183.744 346.966 184.944C349.885 186.346 353.156 187.061 356.688 187.067C359.761 187.071 362.463 186.713 364.718 186.007C366.98 185.295 368.857 184.282 370.298 183C371.751 181.717 372.85 180.152 373.563 178.358C374.279 176.574 374.644 174.567 374.648 172.402C374.651 170.236 374.291 168.368 373.58 166.852C372.871 165.336 371.836 164.001 370.502 162.893" />
            <path id="t" d="M414.746 137.937L382.133 137.887C381.348 137.885 380.71 138.521 380.708 139.307L380.701 143.662C380.701 144.445 381.335 145.084 382.121 145.086L393.101 145.102C394.036 145.104 394.793 145.863 394.793 146.799L394.732 184.95C394.732 185.734 395.367 186.372 396.152 186.374L400.576 186.38C401.362 186.383 401.998 185.746 402 184.96L402.058 146.812C402.06 145.874 402.819 145.117 403.754 145.119L414.736 145.136C415.52 145.136 416.158 144.501 416.158 143.715L416.166 139.361C416.166 138.577 415.53 137.939 414.746 137.937" />
        </g>
    </g>
</svg>