<svg width="435" height="198" viewBox="0 0 435 198" fill="none" xmlns="http://www.w3.org/2000/svg">
<g id="Property 1=reverseColor">
<rect width="435" height="198" fill="black"/>
<g id="logo">
<g id="back">
<g id="green">
<path id="Vector" d="M289.001 12.0009H207.001V61.0009H289.001V12.0009Z" fill="#5FC26E"/>
</g>
<g id="yellow">
<path id="Vector_2" d="M95.9996 186.001L180 186.001L180 139.001L95.9996 139.001L95.9996 186.001Z" fill="#FFE24A"/>
</g>
<g id="pink">
<path id="Vector_3" d="M338 12.0009H297V61.0009H338V12.0009Z" fill="#E478ED"/>
</g>
<g id="red">
<path id="Vector_4" d="M189 185.841L244 185.841L244 139L189 139L189 185.841Z" fill="#FF4A50"/>
</g>
<g id="blue">
<path id="Vector_5" d="M19.9996 186.001L86.9996 186.001L86.9996 139.001L19.9996 139.001L19.9996 186.001Z" fill="#40A1FF"/>
</g>
<g id="orange">
<path id="Vector_6" d="M412.999 12.0009H346.999V61.0009H412.999V12.0009Z" fill="#FF7A00"/>
</g>
</g>
<g id="letters">
<g id="path">
<path d="M338 12H337.217L338 12.7031V12Z" fill="black"/>
<path d="M297 21.0625V12H299.293C302.176 18.1562 307.896 21.8867 315.709 21.8867C316.689 21.8867 317.805 21.7969 318.936 21.625C320.998 21.3086 323.113 20.7188 324.551 19.918L323.623 12H330.988V23.4609C328.16 25.4844 321.785 27.6211 314.867 27.6211C307.607 27.6211 301.424 25.3242 297 21.0625Z" fill="black"/>
</g>
<g id="path_2">
<path d="M207 27.625H217.447L216.957 12H208.975L208.641 23.5312L207 23.2305V27.625Z" fill="black"/>
<path d="M235.473 27.625L235.963 12H243.879L244.221 23.1797L262.129 19.9062H262.424L261.301 27.625H235.473Z" fill="black"/>
<path d="M259.41 13.1836L248.186 12H259.523L259.41 13.1836Z" fill="black"/>
</g>
<g id="path_3">
<path d="M207 47.6289L211.406 46.8906L211.016 61H219.572L219.174 46.5117L280.299 51.2969H280.453L278.512 40.2812H207V47.6289Z" fill="black"/>
<path d="M237.508 61H233.168L233.154 60.6406L237.508 61Z" fill="black"/>
</g>
<path id="path_4" d="M347 47.5078L363.561 49.7773H363.713L361.85 40.2812H347V47.5078Z" fill="black"/>
<path id="path_5" d="M338 40.2812H314.316C306.393 40.2812 300.49 42.7656 297 46.8359V61H302.99C302.93 60.4688 302.9 59.918 302.9 59.3477C302.9 53.4219 307.172 48.4844 316.338 48.4844H324.104L324.625 61H334.105L334.746 45.8281L338 46.2741V40.2812Z" fill="black"/>
<g id="path_6">
<path d="M86.5747 143.686L76.0195 183.428C75.9075 184.301 75.7692 185.159 75.6054 186H67.6952C68.3581 183.739 68.7014 181.323 68.7014 178.8C68.7717 165.871 58.9203 155.733 42.9468 155.733C30.8292 155.796 22.3068 161.832 20 172.585V155.185C25.5532 149.709 33.4684 146.551 43.1579 146.551C59.2017 146.551 71.2347 155.733 74.9641 170.499V145.302L86.5044 143.539V143.686H86.5747Z" fill="black"/>
<path d="M20 185.316V186H20.1526C20.099 185.774 20.0482 185.546 20 185.316Z" fill="black"/>
<path d="M61.1017 178.947C61.1017 181.752 60.5412 184.097 59.5188 186H30.9843V184.383L46.7465 185.558C52.587 185.558 55.0501 182.767 55.0501 179.021C55.0501 175.127 52.587 172.409 46.7465 172.409L30.9843 173.658V164.916L46.7465 165.504C55.1203 165.504 61.1017 169.838 61.1017 178.947Z" fill="black"/>
</g>
<g id="path_7">
<path d="M158.488 186H165.811V145.395L155.346 143.539V143.695L159.365 173.055C156.408 170.738 152.844 169.812 149.582 169.812C142.908 169.812 138.359 173.133 133.732 177.848L135.477 146.863L126.984 145.934L127.895 184.027L126.068 186H139.459L140.027 185.344C142.027 183.043 144.098 181.238 146.494 180.312C147.641 179.867 148.863 179.625 150.189 179.625C154.604 179.625 157.838 181.906 158.488 186Z" fill="black"/>
<path d="M104.766 186H97.5898C97.5703 185.508 97.5605 185.004 97.5605 184.492V146.242L107.039 144.391V144.543L104.766 184.648V185.883C104.766 185.922 104.766 185.961 104.766 186Z" fill="black"/>
</g>
<g id="path_8">
<path d="M189 139V146.633C189.119 145.77 189.283 144.938 189.49 144.133C189.625 143.609 189.779 143.102 189.951 142.605C190.404 141.301 190.986 140.094 191.688 139H189Z" fill="black"/>
<path d="M219.178 139C220.664 141.418 221.588 144.391 221.9 147.797L222.004 150.844C221.744 162.816 214.631 170.16 205.697 170.16C197.135 170.16 190.322 164.039 189 153.84V169.133C192.523 172.801 197.361 175.234 203.414 175.711V186H211.271L208.191 175.711C209.281 175.602 210.424 175.438 211.41 175.168H244V167.918L220.604 170.27C225.744 165.645 228.289 158.625 228.6 151.551L244 152.672V146.785L228.443 147.254C228.34 146.133 228.186 145.051 227.98 144.008C227.631 142.227 227.135 140.555 226.502 139H219.178Z" fill="black"/>
<path d="M210.217 153.129L209.334 140.941H215.514L215.098 153.129C215.098 159.605 212.033 164.23 205.594 164.23C199.154 164.23 196.143 159.66 196.143 153.129L195.623 140.941H201.752L200.92 153.129C200.92 157.645 202.895 159.551 205.543 159.551C208.295 159.551 210.217 157.645 210.217 153.129Z" fill="black"/>
</g>
<g id="path_9">
<path d="M413 15.0312C411.543 15.8633 409.75 16.4062 407.67 16.6562V20.6992L413 31.4531V15.0312Z" fill="black"/>
<path d="M395.293 15.5117L395.15 12H402.352L402.104 17.7422L403.23 46.2734H371.482L370 37.9492H370.119L394.404 41.9922L395.232 19.9141L374.029 21.4805L373.316 14.7852L395.293 15.5117Z" fill="black"/>
</g>
<path id="path_10" d="M347 20.7631L353.906 26.9492H359.199L359.803 12H353.609L353.727 17.7266L347.312 12H347V20.7631Z" fill="black"/>
</g>
<g id="text">
<g id="open">
<path id="o" d="M48.1187 36.36C48.1107 41.7625 46.9797 46.1025 44.7556 49.2591C42.5355 52.4073 39.2553 54.0024 35.0022 53.9964C30.7966 53.9899 27.5413 52.3844 25.3337 49.2277C23.1201 46.067 22.0016 41.7251 22.0101 36.3186C22.0185 30.914 23.149 26.5741 25.3736 23.4214C27.5912 20.2712 30.851 18.6782 35.0561 18.6841C39.3092 18.6906 42.5854 20.2937 44.797 23.4503C47.0086 26.6135 48.1271 30.9575 48.1187 36.36V36.36ZM50.0499 18.3662C48.2788 16.1538 46.1026 14.415 43.5832 13.1968C41.0553 11.974 38.1907 11.3522 35.0686 11.3477C31.9465 11.3417 29.0924 11.9551 26.5854 13.1718C24.0805 14.3841 21.9083 16.1164 20.1352 18.3203C18.3661 20.5227 16.9772 23.1863 16.0044 26.2412C15.038 29.298 14.5451 32.6858 14.5391 36.3081C14.5326 39.9763 15.0171 43.376 15.9754 46.4124C16.9338 49.4463 18.3143 52.1059 20.0788 54.3123C21.8459 56.5227 24.0096 58.261 26.5126 59.4838C29.0175 60.7065 31.8717 61.3283 34.9918 61.3328C38.1118 61.3368 40.9765 60.7255 43.5104 59.5112C46.0403 58.2964 48.2184 56.5641 49.9915 54.3602C51.7626 52.1558 53.1515 49.5022 54.1243 46.4728C55.0907 43.4384 55.5856 40.0407 55.5896 36.3705C55.5961 32.7501 55.1136 29.3604 54.1553 26.2996C53.1949 23.2447 51.815 20.5766 50.0499 18.3662" fill="white"/>
<path id="p" d="M73.0692 34.7994L73.0922 19.9768C73.0942 19.4922 73.4873 19.099 73.9737 19.099L86.0031 19.1179C88.504 19.1219 90.5225 19.8436 91.9983 21.2595C93.474 22.6739 94.2203 24.7365 94.2163 27.3881C94.2124 29.9893 93.5179 32.05 92.1519 33.5098C90.7845 34.9656 88.7076 35.7038 85.9761 35.6998L73.9468 35.6788C73.4604 35.6788 73.0692 35.2835 73.0692 34.7994V34.7994ZM67.1868 60.6327L71.608 60.6392C72.3917 60.6412 73.0298 60.0048 73.0318 59.2208L73.0568 42.5995L85.6334 42.62C87.9717 42.6245 90.1464 42.3001 92.094 41.6593C94.0457 41.0189 95.7564 40.0417 97.1808 38.7566C98.6066 37.465 99.7226 35.8575 100.502 33.978C101.286 32.0959 101.685 29.881 101.689 27.3981C101.693 24.9237 101.301 22.7113 100.521 20.8148C99.7416 18.9288 98.648 17.3292 97.2721 16.0631C95.8961 14.7944 94.2288 13.8232 92.3206 13.1769C90.4163 12.5301 88.3314 12.1992 86.1278 12.1952L67.2636 12.1683C66.4779 12.1663 65.8398 12.8026 65.8378 13.5862L65.7689 59.2083C65.7669 59.9943 66.403 60.6307 67.1868 60.6327" fill="white"/>
<path id="e" d="M112.308 60.6914L141.674 60.7373C142.46 60.7393 143.098 60.1029 143.098 59.3169L143.104 54.9624C143.107 54.1764 142.47 53.5401 141.687 53.5381L119.6 53.5026C118.808 53.5026 118.166 52.8578 118.166 52.0658L118.187 39.8089C118.187 39.0169 118.831 38.3741 119.625 38.3741L130.655 38.3911C131.438 38.3931 132.077 37.7567 132.077 36.9727L132.085 32.6182C132.085 31.8342 131.449 31.1959 130.665 31.1939L119.636 31.1774C118.843 31.1774 118.199 30.5326 118.201 29.74L118.216 20.8714C118.216 20.0769 118.86 19.4341 119.654 19.4366L140.703 19.4695C141.487 19.4695 142.125 18.8352 142.125 18.0491L142.134 13.6927C142.134 12.9086 141.498 12.2703 140.714 12.2703L112.383 12.2269C111.599 12.2249 110.961 12.8612 110.961 13.6448L110.888 59.267C110.888 60.053 111.524 60.6914 112.308 60.6914" fill="white"/>
<path id="n" d="M188.884 12.3566L184.596 12.3506C183.813 12.3486 183.175 12.9849 183.175 13.7685L183.133 40.0369C183.131 41.1429 183.141 42.2598 183.164 43.3912C183.187 44.5201 183.195 45.5787 183.193 46.5683C183.193 46.8324 183.234 47.1318 183.179 47.3898C183.114 47.6748 182.736 47.7392 182.555 47.5251C182.52 47.4837 182.497 47.4357 182.476 47.3878C182.416 47.2466 182.332 47.1113 182.256 46.9761C181.992 46.5144 181.73 46.0488 181.472 45.5807C181.106 44.9109 180.726 44.2541 180.333 43.6033C179.948 42.969 162.098 14.2077 161.337 12.9824C161.08 12.5667 160.622 12.3132 160.132 12.3132L154.887 12.3047C154.101 12.3027 153.463 12.939 153.461 13.7231L153.393 59.3447C153.391 60.1308 154.027 60.7671 154.81 60.7691L159.096 60.7756C159.88 60.7776 160.518 60.1413 160.52 59.3572L160.562 32.9855C160.562 31.904 160.552 30.808 160.531 29.7015C160.508 28.5956 160.5 27.56 160.502 26.5908C160.502 26.3912 160.527 26.179 160.489 25.9814C160.477 25.921 160.45 25.8566 160.456 25.7923C160.468 25.6655 160.701 25.5033 160.824 25.5033C160.851 25.5033 160.903 25.5262 160.932 25.5322C161.08 25.5677 161.171 25.678 161.219 25.8112C161.273 25.9629 161.381 26.1022 161.462 26.2414C161.657 26.5723 161.855 26.9047 162.05 27.2376C162.763 28.4374 163.416 29.4979 164.015 30.4192L182.842 60.1537C183.102 60.5635 183.555 60.813 184.039 60.815L188.81 60.8215C189.593 60.8235 190.231 60.1872 190.231 59.4031L190.304 13.781C190.304 12.9949 189.668 12.3566 188.884 12.3566" fill="white"/>
</g>
<g id="publishing">
<path id="p1" d="M25.8385 82.8622C25.8385 82.3092 26.2895 81.8601 26.8423 81.8621L38.7493 81.879C41.2523 81.883 43.2683 82.6047 44.7465 84.0206C46.2203 85.4349 46.9666 87.4976 46.9626 90.1467C46.9581 92.7544 46.2617 94.8131 44.8942 96.2709C43.5327 97.7267 41.4558 98.4629 38.7244 98.4584L26.8173 98.4419C26.2645 98.4399 25.8155 97.9907 25.8155 97.4353L25.8385 82.8622V82.8622ZM50.0158 78.8222C48.6419 77.5555 46.9751 76.5843 45.0643 75.9375C43.1606 75.2912 41.0757 74.9623 38.8701 74.9583L20.0054 74.9294C19.2197 74.9269 18.5836 75.5632 18.5816 76.3472L18.5107 121.969C18.5107 122.755 19.1448 123.392 19.9306 123.394L24.3543 123.4C25.14 123.402 25.7761 122.766 25.7781 121.982L25.8011 106.637C25.8031 105.932 26.3748 105.363 27.0792 105.365L38.3772 105.381C40.7115 105.386 42.8862 105.063 44.8398 104.42C46.792 103.778 48.5007 102.8 49.9206 101.518C51.3424 100.235 52.4629 98.6271 53.2507 96.7391C54.0319 94.8525 54.4291 92.6401 54.4335 90.1592C54.4375 87.6743 54.0444 85.4619 53.2671 83.5759C52.4854 81.6894 51.3923 80.0903 50.0158 78.8222" fill="white"/>
<path id="u" d="M100.131 76.4647C100.131 75.6807 99.4971 75.0423 98.7114 75.0403L94.2902 75.0339C93.5064 75.0339 92.8683 75.6682 92.8663 76.4542L92.8244 103.41C92.8184 107.848 91.8955 111.248 90.0805 113.509C88.268 115.767 85.4203 116.908 81.6163 116.902C77.9928 116.896 75.218 115.7 73.3676 113.345C71.5157 110.99 70.5783 107.472 70.5863 102.893L70.6282 76.4188C70.6282 75.6348 69.9921 74.9964 69.2083 74.9944L64.7846 74.9879C63.9989 74.9879 63.3628 75.6223 63.3608 76.4083L63.3194 103.089C63.3089 109.749 64.847 114.994 67.8922 118.672C70.9774 122.409 75.4175 124.23 81.4646 124.239C87.5591 124.249 92.0826 122.498 95.2964 118.89C98.4664 115.332 100.079 110.084 100.09 103.284L100.131 76.4647V76.4647Z" fill="white"/>
<path id="b" d="M138.864 114.72C137.563 116.184 135.278 116.924 132.083 116.918L120.673 116.901C119.86 116.899 119.203 116.24 119.203 115.427L119.224 102.343C119.224 101.53 119.885 100.872 120.698 100.872L132.316 100.891C135.056 100.895 137.184 101.619 138.642 103.043C140.098 104.464 140.834 106.442 140.83 108.918C140.826 111.303 140.165 113.256 138.864 114.72ZM119.239 92.7543L119.253 83.195C119.255 82.384 119.914 81.7247 120.727 81.7267L132.208 81.7432C134.626 81.7476 136.357 82.365 137.357 83.5793C138.357 84.796 138.864 86.3222 138.862 88.1109C138.86 88.8865 138.731 89.6536 138.477 90.3917C138.226 91.1218 137.833 91.7851 137.309 92.3551C136.783 92.927 136.089 93.3906 135.251 93.7335C134.403 94.0749 133.374 94.2471 132.189 94.2451L120.708 94.2266C119.896 94.2266 119.239 93.5653 119.239 92.7543ZM113.68 123.535L131.507 123.562C136.791 123.57 140.92 122.316 143.774 119.84C146.676 117.325 148.089 113.678 148.098 108.687C148.1 107.038 147.859 105.545 147.376 104.246C146.894 102.96 146.258 101.842 145.482 100.914C144.705 99.993 143.826 99.2339 142.874 98.6599C141.953 98.1024 141.015 97.6782 140.086 97.3977C141.776 96.5303 143.217 95.3226 144.364 93.8064C145.528 92.2677 146.121 90.2255 146.125 87.7386C146.131 83.5858 144.909 80.5099 142.389 78.3389C139.905 76.1954 136.502 75.1054 132.274 75.0994L113.755 75.07C112.971 75.068 112.333 75.7043 112.333 76.4904L112.263 122.111C112.26 122.897 112.896 123.533 113.68 123.535" fill="white"/>
<path id="l" d="M188.884 116.456L167.941 116.423C166.974 116.42 166.19 115.637 166.192 114.671L166.253 76.5753C166.253 75.7912 165.619 75.1529 164.833 75.1529L160.41 75.1444C159.624 75.1444 158.988 75.7788 158.986 76.5648L158.915 122.184C158.915 122.971 159.549 123.609 160.335 123.609L188.874 123.653C189.657 123.655 190.295 123.02 190.295 122.234L190.304 117.88C190.304 117.094 189.668 116.456 188.884 116.456" fill="white"/>
<path id="i" d="M206.292 75.2095L201.871 75.203C201.088 75.201 200.449 75.8374 200.447 76.6214L200.377 122.244C200.375 123.03 201.011 123.666 201.796 123.668L206.218 123.674C207.001 123.676 207.639 123.04 207.639 122.256L207.712 76.6339C207.712 75.8478 207.076 75.2095 206.292 75.2095" fill="white"/>
<path id="s" d="M248.911 100.31C247.578 99.208 245.938 98.2493 244.034 97.4633C242.122 96.6797 239.957 95.9101 237.573 95.174C235.503 94.5686 233.761 93.9867 232.399 93.4377C231.007 92.8782 229.949 92.3252 229.161 91.7408C228.388 91.1729 227.832 90.551 227.516 89.8878C227.198 89.2265 227.041 88.4779 227.041 87.6589C227.043 86.0409 227.662 84.6724 228.934 83.4746C230.206 82.2728 232.223 81.6904 235.095 81.6969C237.473 81.6989 239.583 82.0857 241.369 82.8448C242.783 83.4457 244.132 84.3151 245.381 85.4275C245.946 85.9326 246.805 85.9056 247.337 85.3671L250.489 82.1815C250.765 81.9005 250.913 81.5202 250.898 81.125C250.883 80.7317 250.703 80.3619 250.405 80.1058C248.545 78.4983 246.541 77.1987 244.445 76.2445C241.918 75.0921 238.962 74.5037 235.659 74.4997C233.453 74.4957 231.345 74.8076 229.391 75.425C227.435 76.0429 225.72 76.9387 224.297 78.0846C222.87 79.2305 221.725 80.6633 220.892 82.3437C220.062 84.0216 219.638 85.9246 219.636 87.9933C219.632 90.1498 219.944 91.9924 220.565 93.4686C221.181 94.9409 222.124 96.2181 223.369 97.2556C224.608 98.2932 226.192 99.2165 228.071 99.9986C229.932 100.776 232.192 101.55 234.777 102.294C236.796 102.895 238.515 103.477 239.881 104.029C241.255 104.582 242.392 105.174 243.259 105.794C244.119 106.407 244.745 107.089 245.107 107.817C245.47 108.551 245.655 109.385 245.653 110.29C245.645 114.943 242.284 117.298 235.661 117.287C233.376 117.283 231.094 116.757 228.876 115.725C227.073 114.886 225.448 113.794 224.047 112.477C223.496 111.959 222.629 111.966 222.085 112.494L218.84 115.645C218.569 115.907 218.416 116.266 218.41 116.645C218.405 117.023 218.549 117.385 218.813 117.657C220.684 119.579 222.891 121.159 225.375 122.359C228.292 123.763 231.562 124.478 235.098 124.484C238.17 124.488 240.87 124.133 243.127 123.424C245.385 122.713 247.264 121.7 248.707 120.417C250.158 119.134 251.255 117.57 251.97 115.777C252.688 113.989 253.053 111.984 253.055 109.82C253.06 107.655 252.7 105.788 251.987 104.27C251.278 102.751 250.243 101.421 248.911 100.31" fill="white"/>
<path id="h" d="M299.237 75.3563L294.817 75.3498C294.031 75.3478 293.393 75.9841 293.391 76.7682L293.366 94.0382C293.364 94.5188 292.974 94.9096 292.493 94.9076L271.995 94.8762C271.515 94.8762 271.124 94.4854 271.126 94.0028L271.151 76.7347C271.153 75.9487 270.519 75.3123 269.733 75.3103L265.308 75.3044C264.522 75.3019 263.886 75.9382 263.884 76.7222L263.813 122.344C263.811 123.13 264.447 123.767 265.233 123.769L269.659 123.775C270.442 123.777 271.08 123.141 271.082 122.357L271.112 102.945C271.112 102.462 271.502 102.073 271.985 102.073L292.481 102.105C292.963 102.107 293.352 102.498 293.352 102.978L293.321 122.39C293.321 123.176 293.955 123.812 294.74 123.815L299.162 123.821C299.948 123.823 300.584 123.186 300.586 122.402L300.657 76.7806C300.659 75.9946 300.023 75.3563 299.237 75.3563" fill="white"/>
<path id="i1" d="M319.406 75.3854L314.984 75.3789C314.198 75.3769 313.56 76.0132 313.558 76.7973L313.49 122.419C313.488 123.205 314.124 123.841 314.907 123.843L319.331 123.85C320.115 123.852 320.753 123.216 320.755 122.431L320.826 76.8098C320.828 76.0237 320.19 75.3854 319.406 75.3854" fill="white"/>
<path id="n1" d="M369.162 75.4665L364.874 75.46C364.09 75.458 363.452 76.0943 363.45 76.8804L363.41 103.146C363.408 104.253 363.417 105.369 363.439 106.501C363.464 107.63 363.471 108.69 363.471 109.678C363.471 109.89 363.477 110.106 363.469 110.319C363.46 110.506 363.369 110.841 363.12 110.805C362.938 110.778 362.822 110.602 362.741 110.456C362.631 110.258 362.519 110.061 362.409 109.865C362.188 109.474 361.966 109.085 361.75 108.693C361.386 108.023 361.003 107.364 360.611 106.713C360.224 106.078 342.374 77.3171 341.615 76.0943C341.357 75.6761 340.9 75.4226 340.409 75.4226L335.163 75.4141C334.379 75.4121 333.741 76.0484 333.739 76.8325L333.668 122.455C333.668 123.241 334.302 123.877 335.088 123.879L339.372 123.885C340.158 123.887 340.796 123.251 340.796 122.465L340.837 96.0948C340.839 95.0133 340.829 93.9154 340.809 92.8114C340.796 92.1811 340.786 91.5512 340.782 90.9209C340.78 90.5511 340.827 90.1518 340.765 89.7855C340.752 89.7086 340.732 89.6378 340.732 89.5589C340.732 89.503 340.742 89.4591 340.757 89.4092C340.767 89.3738 340.784 89.2989 340.8 89.266C340.858 89.1577 341.041 89.0848 341.151 89.0788C341.278 89.0703 341.468 89.1078 341.578 89.1741C341.613 89.1951 341.625 89.226 341.655 89.251C341.686 89.2759 341.725 89.2739 341.756 89.3054C341.792 89.3363 341.812 89.3967 341.827 89.4381C341.86 89.528 341.887 89.6028 341.937 89.6837C342.066 89.9063 342.197 90.1269 342.328 90.345C343.041 91.5448 343.694 92.6073 344.292 93.5306L363.118 123.263C363.377 123.673 363.83 123.922 364.315 123.924L369.087 123.931C369.871 123.933 370.509 123.297 370.509 122.513L370.582 76.8908C370.582 76.1048 369.946 75.4665 369.162 75.4665" fill="white"/>
<path id="g" d="M418.249 99.3871L405.745 99.3687C404.959 99.3667 404.321 100.003 404.321 100.787L404.315 105.004C404.313 105.79 404.949 106.426 405.732 106.429H406.462C407.375 106.431 408.287 106.433 409.202 106.433C409.682 106.435 410.162 106.435 410.643 106.437H411.245C411.368 106.437 411.43 106.449 411.532 106.511C411.659 106.591 411.815 106.616 411.923 106.724C412.004 106.805 412.098 106.898 412.141 107.009C412.241 107.267 412.152 107.636 412.129 107.886C412.039 108.843 411.852 109.791 411.562 110.706C411.145 112.012 410.497 113.168 409.632 114.145C408.765 115.123 407.626 115.921 406.254 116.516C404.884 117.106 403.193 117.406 401.226 117.402C397.016 117.396 393.761 115.792 391.553 112.636C389.34 109.473 388.221 105.131 388.23 99.726C388.238 94.3215 389.369 89.984 391.595 86.8273C393.813 83.6766 397.071 82.0836 401.28 82.0901C403.743 82.0941 405.747 82.5602 407.234 83.475C408.431 84.2171 409.57 85.3236 410.614 86.7624C411.05 87.3638 411.877 87.526 412.509 87.1368L416.575 84.6269C416.904 84.4253 417.132 84.0989 417.215 83.7246C417.301 83.3522 417.228 82.9595 417.018 82.6371C415.473 80.2769 413.534 78.4114 411.256 77.0888C408.591 75.5457 405.238 74.7596 401.29 74.7536C398.168 74.7471 395.314 75.361 392.809 76.5753C390.302 77.7895 388.13 79.5218 386.357 81.7262C384.584 83.9347 383.193 86.6002 382.229 89.6471C381.258 92.6955 380.765 96.0827 380.759 99.7135C380.752 103.39 381.239 106.792 382.197 109.82C383.152 112.846 384.531 115.503 386.301 117.72C388.068 119.931 390.234 121.671 392.736 122.89C395.237 124.112 398.089 124.734 401.213 124.738C403.872 124.742 406.367 124.304 408.622 123.432C410.871 122.565 412.842 121.266 414.482 119.562C416.114 117.865 417.401 115.782 418.299 113.37C419.199 110.962 419.656 108.156 419.662 105.027L419.669 100.811C419.671 100.028 419.032 99.3891 418.249 99.3871" fill="white"/>
</g>
<g id="fest">
<path id="f" d="M290.298 137.731L261.97 137.687C261.184 137.687 260.546 138.322 260.546 139.108L260.475 184.729C260.473 185.515 261.109 186.152 261.893 186.152L266.316 186.16C267.102 186.16 267.74 185.524 267.74 184.74L267.769 166.386C267.771 165.434 268.542 164.666 269.492 164.666L280.237 164.685C281.023 164.685 281.659 164.049 281.661 163.265L281.667 158.908C281.67 158.124 281.034 157.486 280.25 157.484L269.503 157.467C268.553 157.465 267.784 156.694 267.786 155.743L267.801 146.617C267.801 145.664 268.574 144.897 269.524 144.897L290.288 144.93C291.074 144.93 291.71 144.296 291.712 143.51L291.718 139.156C291.718 138.369 291.084 137.731 290.298 137.731" fill="white"/>
<path id="e1" d="M331.484 179.08L309.682 179.047C308.732 179.045 307.964 178.273 307.966 177.323L307.982 165.637C307.984 164.686 308.755 163.917 309.705 163.919L320.45 163.935C321.236 163.937 321.874 163.301 321.874 162.515L321.88 158.161C321.883 157.375 321.248 156.738 320.463 156.738L309.718 156.72C308.768 156.72 307.998 155.948 308.001 154.998L308.011 146.699C308.013 145.749 308.787 144.979 309.737 144.981L330.498 145.012C331.284 145.014 331.923 144.378 331.923 143.592L331.929 139.238C331.931 138.451 331.297 137.815 330.511 137.813L302.18 137.769C301.397 137.767 300.759 138.404 300.759 139.188L300.688 184.811C300.686 185.597 301.322 186.234 302.106 186.234L331.474 186.282C332.259 186.282 332.896 185.645 332.898 184.861L332.904 180.505C332.906 179.721 332.269 179.082 331.484 179.08" fill="white"/>
<path id="s1" d="M370.503 162.893C369.168 161.789 367.526 160.83 365.626 160.048C363.743 159.27 361.577 158.503 359.167 157.754C357.095 157.151 355.353 156.567 353.991 156.02C352.598 155.46 351.541 154.905 350.752 154.325C349.979 153.755 349.426 153.134 349.109 152.472C348.792 151.809 348.632 151.06 348.632 150.241C348.635 148.623 349.254 147.255 350.528 146.055C351.798 144.855 353.815 144.275 356.687 144.279C359.068 144.283 361.179 144.668 362.959 145.425C364.375 146.028 365.726 146.897 366.975 148.012C367.538 148.515 368.399 148.486 368.931 147.947L372.08 144.764C372.357 144.483 372.504 144.1 372.49 143.707C372.473 143.314 372.297 142.946 371.999 142.688C370.141 141.083 368.135 139.783 366.04 138.827C363.512 137.675 360.556 137.086 357.251 137.082C355.043 137.078 352.933 137.39 350.985 138.008C349.027 138.627 347.315 139.521 345.891 140.667C344.462 141.815 343.317 143.248 342.486 144.926C341.656 146.604 341.232 148.505 341.228 150.576C341.226 152.732 341.538 154.574 342.157 156.051C342.773 157.524 343.716 158.796 344.961 159.838C346.207 160.878 347.791 161.803 349.667 162.583C351.528 163.361 353.788 164.134 356.37 164.876C358.378 165.473 360.094 166.056 361.475 166.611C362.847 167.164 363.982 167.757 364.851 168.378C365.713 168.99 366.337 169.672 366.699 170.4C367.064 171.136 367.247 171.965 367.247 172.874C367.239 177.526 363.878 179.88 357.255 179.87C354.971 179.865 352.686 179.339 350.468 178.306C348.666 177.47 347.042 176.376 345.641 175.06C345.086 174.542 344.221 174.548 343.677 175.077L340.434 178.227C340.161 178.489 340.008 178.851 340.001 179.225C339.997 179.603 340.143 179.97 340.405 180.24C342.278 182.163 344.485 183.744 346.967 184.943C349.886 186.345 353.158 187.06 356.689 187.067C359.762 187.071 362.464 186.713 364.72 186.006C366.982 185.295 368.858 184.282 370.299 182.999C371.752 181.716 372.852 180.152 373.564 178.358C374.28 176.574 374.646 174.567 374.65 172.402C374.652 170.236 374.292 168.368 373.581 166.852C372.872 165.336 371.837 164.001 370.503 162.893" fill="white"/>
<path id="t" d="M414.747 137.936L382.134 137.886C381.348 137.884 380.71 138.521 380.708 139.307L380.701 143.661C380.701 144.445 381.336 145.084 382.121 145.086L393.101 145.102C394.036 145.104 394.793 145.863 394.793 146.799L394.733 184.95C394.733 185.734 395.367 186.372 396.153 186.374L400.576 186.38C401.362 186.382 401.998 185.746 402 184.96L402.058 146.811C402.06 145.874 402.819 145.117 403.755 145.119L414.736 145.136C415.52 145.136 416.158 144.501 416.158 143.715L416.167 139.361C416.167 138.577 415.53 137.938 414.747 137.936" fill="white"/>
</g>
</g>
</g>
</g>
</svg>
