<svg xmlns="http://www.w3.org/2000/svg" version="1.1" xmlns:xlink="http://www.w3.org/1999/xlink" xmlns:svgjs="http://svgjs.com/svgjs" width="1000" height="1000"><g transform="matrix(62.5,0,0,62.5,-30.75,0)"><svg xmlns="http://www.w3.org/2000/svg" version="1.1" xmlns:xlink="http://www.w3.org/1999/xlink" xmlns:svgjs="http://svgjs.com/svgjs" width="16" height="16"><svg width="16" height="16" viewBox="0 0 16 16" fill="none" xmlns="http://www.w3.org/2000/svg">
<g clip-path="url(#clip0)">
<rect width="16" height="16" fill="#FF4A50"></rect>
<path d="M-1 0V2.5984C-0.958842 2.30452 -0.902166 2.02128 -0.830646 1.74734C-0.784091 1.56915 -0.730788 1.39628 -0.671413 1.22739C-0.514879 0.783245 -0.313814 0.37234 -0.0715909 0H-1Z" fill="white"></path>
<path d="M9.42504 0C9.93849 0.823138 10.2576 1.83511 10.3656 2.99468L10.4013 4.03191C10.3116 8.10771 7.8543 10.6077 4.76815 10.6077C1.81019 10.6077 -0.543217 8.52394 -1 5.05186V10.258C0.217187 11.5066 1.88846 12.3351 3.9794 12.4973V16H6.69379L5.62976 12.4973C6.00625 12.4601 6.40096 12.4043 6.74169 12.3125H18V9.84441L9.91758 10.6449C11.6934 9.07048 12.5726 6.68085 12.6799 4.27261L18 4.65426V2.65027L12.6259 2.80984C12.5901 2.42819 12.5368 2.05984 12.466 1.70479C12.3452 1.0984 12.1738 0.529255 11.9552 0H9.42504Z" fill="white"></path>
<path d="M6.32944 4.80984L6.02447 0.660904H8.15927L8.01555 4.80984C8.01555 7.01463 6.95692 8.5891 4.73239 8.5891C2.50785 8.5891 1.46744 7.03324 1.46744 4.80984L1.28796 0.660904H3.40522L3.11779 4.80984C3.11779 6.34707 3.79993 6.99601 4.71484 6.99601C5.66552 6.99601 6.32944 6.34707 6.32944 4.80984Z" fill="white"></path>
</g>
<defs>
<clipPath id="clip0">
<rect width="16" height="16" fill="white"></rect>
</clipPath>
</defs>
</svg></svg></g></svg>